<svg width="256" height="256" xmlns="http://www.w3.org/2000/svg" stroke="null" style="vector-effect: non-scaling-stroke;" version="1.0" preserveAspectRatio="xMidYMid meet">
 <g stroke="null">
  <title stroke="null">Layer 1</title>
  <g stroke="null" transform="translate(0 256) scale(0.1 -0.1)" fill="#000000" id="svg_1">
   <path stroke="null" fill="#ffffff" d="m1.00008,1852.89617l0,-717.43733l74.03503,0l74.03503,0l0,717.43733l0,717.43733l-74.03503,0l-74.03503,0l0,-717.43733z" id="svg_2"/>
   <path stroke="null" fill="#ffffff" d="m303.7211,2550.63914c-4.93567,-11.25392 -6.58089,-40.79546 -3.29045,-67.52351l4.93567,-46.42242l633.41083,-8.44044c700.86497,-8.44044 718.96242,-11.25392 954.2293,-106.91223c87.19682,-36.57524 154.65096,-77.37069 231.97643,-143.48747c185.91019,-157.55486 261.59045,-331.99061 261.59045,-593.64422c0,-244.77274 -74.03503,-413.58152 -250.07389,-571.13638l-100.3586,-87.21787l200.7172,-203.97728l199.07198,-203.97728l0,-198.35032l0,-196.94358l-307.65669,0l-309.30191,1.40674l-301.0758,308.07603l-299.43057,309.48277l-148.07006,0l-148.07006,0l0,-246.17947l0,-246.17947l74.03503,0l74.03503,0l0,184.28292l0,182.87618l39.48535,-4.22022c27.96879,-2.81348 125.03694,-91.43809 337.2707,-309.48277l299.43057,-306.66929l417.88663,0l419.53185,0l0,286.97493l0,286.97493l-164.52229,168.80878c-90.48726,92.84483 -164.52229,171.62226 -164.52229,175.84248c0,4.22022 26.32357,35.1685 60.87325,68.93025c74.03503,75.96395 176.03885,258.84013 204.00764,369.97258c11.51656,46.42242 21.3879,157.55486 21.3879,246.17947c-1.64522,289.78841 -88.84204,481.10503 -310.94713,668.20143c-148.07006,126.60659 -291.20446,195.53684 -501.793,244.77274c-189.20064,45.01568 -393.20828,57.67633 -926.26051,57.67633c-404.72484,0 -491.92166,-2.81348 -498.50255,-19.69436z" id="svg_3"/>
   <path stroke="null" fill="#ffffff" d="m300.43065,1850.08269l4.93567,-454.37697l78.9707,-4.22022l77.32548,-4.22022l0,395.2939l0,396.70064l514.95478,-7.0337c559.3758,-7.0337 641.63694,-16.88088 802.86879,-97.06505c230.33121,-116.75941 347.14204,-346.058 297.78535,-589.424c-44.42102,-216.63794 -174.39363,-351.68496 -411.30573,-426.24218c-54.29236,-15.47414 -98.71338,-35.1685 -102.00382,-40.79546c-1.64522,-7.0337 157.9414,-177.24922 355.36815,-379.81976l360.30382,-367.1591l4.93567,94.25157l4.93567,95.65831l-240.20255,244.77274c-131.61783,135.04703 -238.55733,247.58621 -238.55733,251.80643c0,2.81348 37.84013,25.32132 82.26115,50.64263c225.39554,123.79311 345.49682,324.95691 345.49682,580.98356c-1.64522,347.46474 -213.87898,582.3903 -616.9586,680.86209c-82.26115,19.69436 -197.42675,23.91458 -712.38153,29.54154l-612.02293,5.62696l3.29045,-455.78371z" id="svg_4"/>
   <path stroke="null" fill="#ffffff" d="m609.73256,1987.9432l0,-61.89655l416.2414,-5.62696c473.82421,-8.44044 544.56879,-19.69436 651.50828,-106.91223c77.32548,-63.30329 106.93949,-144.89421 95.42293,-260.24687c-23.03312,-223.67164 -162.87707,-291.19515 -598.86115,-291.19515l-251.71911,0l0,-63.30329l0,-63.30329l268.17134,0c269.81656,0 376.75605,14.0674 482.05032,60.48981c159.58662,70.33699 238.55733,182.87618 250.07389,357.31192c13.16178,212.41772 -77.32548,355.90518 -273.10701,430.4624c-148.07006,57.67633 -236.9121,66.11677 -654.79873,66.11677l-384.98217,0l0,-61.89655z" id="svg_5"/>
   <path stroke="null" fill="#ffffff" d="m609.73256,1522.31231l0,-260.24687l-156.29618,0l-156.29618,0l0,-63.30329l0,-63.30329l230.33121,0l230.33121,0l0,323.55017l0,323.55017l-74.03503,0l-74.03503,0l0,-260.24687z" id="svg_6"/>
   <path stroke="null" fill="#ffffff" d="m1.00008,502.42591l0,-506.42635l534.69745,0l534.69745,0l0,63.30329l0,63.30329l-460.66242,0l-460.66242,0l0,379.81976l0,379.81976l156.29618,0l156.29618,0l0,63.30329l0,63.30329l-230.33121,0l-230.33121,0l0,-506.42635z" id="svg_7"/>
   <path stroke="null" fill="#ffffff" d="m609.73256,699.36949l0,-309.48277l-74.03503,0l-74.03503,0l0,175.84248l0,175.84248l-82.26115,0l-82.26115,0l3.29045,-241.95926l4.93567,-243.366l225.39554,-4.22022l227.04076,-4.22022l3.29045,313.70299l4.93567,313.70299l258.3,4.22022l256.65478,2.81348l309.30191,-316.51647l307.65669,-316.51647l97.06815,0c97.06815,0 115.16561,11.25392 72.38981,40.79546c-13.16178,9.84718 -177.68408,175.84248 -366.88471,368.56584l-342.20637,350.27822l-373.46561,0l-375.11083,0l0,-309.48277z" id="svg_8"/>
  </g>
 </g>

</svg>