<svg width="256" height="256" xmlns="http://www.w3.org/2000/svg" stroke="null" style="vector-effect: non-scaling-stroke;" version="1.0" preserveAspectRatio="xMidYMid meet">
 <g stroke="null">
  <title stroke="null">Layer 1</title>
  <g stroke="null" transform="translate(0 256) scale(0.1 -0.1)" fill="#000000" id="svg_1">
   <path fill="#ffffff" stroke="null" d="m1.00008,1852.89617l0,-717.43733l73.36624,0l73.36624,0l0,717.43733l0,717.43733l-73.36624,0l-73.36624,0l0,-717.43733z" id="svg_2"/>
   <path fill="#ffffff" stroke="null" d="m300.98648,2550.63914c-4.89108,-11.25392 -6.52144,-40.79546 -3.26072,-67.52351l4.89108,-46.42242l627.68893,-8.44044c694.53373,-8.44044 712.4677,-11.25392 945.6093,-106.91223c86.40913,-36.57524 153.25392,-77.37069 229.88088,-143.48747c184.23078,-157.55486 259.22738,-331.99061 259.22738,-593.64422c0,-244.77274 -73.36624,-413.58152 -247.81485,-571.13638l-99.45201,-87.21787l198.90403,-203.97728l197.27366,-203.97728l0,-198.35032l0,-196.94358l-304.87748,0l-306.50784,1.40674l-298.35604,308.07603l-296.72568,309.48277l-146.73248,0l-146.73248,0l0,-246.17947l0,-246.17947l73.36624,0l73.36624,0l0,184.28292l0,182.87618l39.12866,-4.22022c27.71613,-2.81348 123.90743,-91.43809 334.22398,-309.48277l296.72568,-306.66929l414.11166,0l415.74202,0l0,286.97493l0,286.97493l-163.03609,168.80878c-89.66985,92.84483 -163.03609,171.62226 -163.03609,175.84248c0,4.22022 26.08577,35.1685 60.32335,68.93025c73.36624,75.96395 174.44861,258.84013 202.16475,369.97258c11.41253,46.42242 21.19469,157.55486 21.19469,246.17947c-1.63036,289.78841 -88.03949,481.10503 -308.1382,668.20143c-146.73248,126.60659 -288.57387,195.53684 -497.26006,244.77274c-187.4915,45.01568 -389.65625,57.67633 -917.89317,57.67633c-401.06877,0 -487.4779,-2.81348 -493.99934,-19.69436z" id="svg_3"/>
   <path fill="#ffffff" stroke="null" d="m297.72575,1850.08269l4.89108,-454.37697l78.25732,-4.22022l76.62696,-4.22022l0,395.2939l0,396.70064l510.30295,-7.0337c554.32269,-7.0337 635.84074,-16.88088 795.6161,-97.06505c228.25052,-116.75941 344.00614,-346.058 295.09532,-589.424c-44.01974,-216.63794 -172.81825,-351.68496 -407.59022,-426.24218c-53.80191,-15.47414 -97.82165,-35.1685 -101.08237,-40.79546c-1.63036,-7.0337 156.51464,-177.24922 352.15795,-379.81976l357.04903,-367.1591l4.89108,94.25157l4.89108,95.65831l-238.03269,244.77274c-130.42887,135.04703 -236.40233,247.58621 -236.40233,251.80643c0,2.81348 37.4983,25.32132 81.51804,50.64263c223.35944,123.79311 342.37578,324.95691 342.37578,580.98356c-1.63036,347.46474 -211.94691,582.3903 -611.38532,680.86209c-81.51804,19.69436 -195.6433,23.91458 -705.94626,29.54154l-606.49424,5.62696l3.26072,-455.78371z" id="svg_4"/>
   <path fill="#ffffff" stroke="null" d="m604.2336,1987.9432l0,-61.89655l412.4813,-5.62696c469.54393,-8.44044 539.64945,-19.69436 645.6229,-106.91223c76.62696,-63.30329 105.97346,-144.89421 94.56093,-260.24687c-22.82505,-223.67164 -161.40573,-291.19515 -593.45136,-291.19515l-249.44521,0l0,-63.30329l0,-63.30329l265.74882,0c267.37918,0 373.35264,14.0674 477.69573,60.48981c158.145,70.33699 236.40233,182.87618 247.81485,357.31192c13.04289,212.41772 -76.62696,355.90518 -270.6399,430.4624c-146.73248,57.67633 -234.77196,66.11677 -648.88362,66.11677l-381.50444,0l0,-61.89655z" id="svg_5"/>
   <path fill="#ffffff" stroke="null" d="m604.2336,1522.31231l0,-260.24687l-154.88428,0l-154.88428,0l0,-63.30329l0,-63.30329l228.25052,0l228.25052,0l0,323.55017l0,323.55017l-73.36624,0l-73.36624,0l0,-260.24687z" id="svg_6"/>
   <path fill="#ffffff" stroke="null" d="m1.00008,502.42591l0,-506.42635l529.86728,0l529.86728,0l0,63.30329l0,63.30329l-456.50104,0l-456.50104,0l0,379.81976l0,379.81976l154.88428,0l154.88428,0l0,63.30329l0,63.30329l-228.25052,0l-228.25052,0l0,-506.42635z" id="svg_7"/>
   <path fill="#ffffff" stroke="null" d="m604.2336,699.36949l0,-309.48277l-73.36624,0l-73.36624,0l0,175.84248l0,175.84248l-81.51804,0l-81.51804,0l3.26072,-241.95926l4.89108,-243.366l223.35944,-4.22022l224.9898,-4.22022l3.26072,313.70299l4.89108,313.70299l255.96666,4.22022l254.3363,2.81348l306.50784,-316.51647l304.87748,-316.51647l96.19129,0c96.19129,0 114.12526,11.25392 71.73588,40.79546c-13.04289,9.84718 -176.07897,175.84248 -363.57047,368.56584l-339.11506,350.27822l-370.09192,0l-371.72228,0l0,-309.48277z" id="svg_8"/>
  </g>
 </g>

</svg>